<svg xmlns="http://www.w3.org/2000/svg" width="800" height="450">
  <defs>
    <filter id="shadow4" x="-2%" y="-2%" width="104%" height="104%">
      <feDropShadow dx="0" dy="1" stdDeviation="2" flood-opacity="0.08"/>
    </filter>
  </defs>
  <!-- Browser chrome -->
  <rect width="800" height="450" rx="10" fill="#f9fafb"/>
  <rect width="800" height="36" rx="10" fill="#e5e7eb"/>
  <rect x="0" y="20" width="800" height="16" fill="#e5e7eb"/>
  <circle cx="20" cy="18" r="6" fill="#ff5f57"/>
  <circle cx="40" cy="18" r="6" fill="#febc2e"/>
  <circle cx="60" cy="18" r="6" fill="#28c840"/>
  <rect x="120" y="10" width="560" height="16" rx="8" fill="#ffffff"/>
  <rect x="135" y="15" width="140" height="6" rx="3" fill="#d1d5db"/>
  <!-- Background -->
  <rect x="0" y="36" width="800" height="414" fill="#f3f4f6"/>
  <!-- Left Panel: Task Detail -->
  <rect x="20" y="50" width="460" height="386" rx="10" fill="#ffffff" filter="url(#shadow4)"/>
  <!-- Task header -->
  <rect x="40" y="66" width="24" height="24" rx="4" fill="#dbeafe"/>
  <text x="47" y="83" font-family="system-ui" font-size="14" fill="#3b82f6">&#x2713;</text>
  <rect x="76" y="66" width="280" height="16" rx="4" fill="#1f2937"/>
  <rect x="76" y="90" width="180" height="10" rx="3" fill="#9ca3af"/>
  <!-- Priority badge -->
  <rect x="370" y="66" width="60" height="22" rx="11" fill="#fef2f2"/>
  <circle cx="384" cy="77" r="4" fill="#ef4444"/>
  <text x="394" y="81" font-family="system-ui" font-size="10" fill="#ef4444">High</text>
  <!-- Status badge -->
  <rect x="370" y="94" width="80" height="22" rx="11" fill="#fef3c7"/>
  <text x="384" y="109" font-family="system-ui" font-size="10" fill="#d97706">In Progress</text>
  <!-- Divider -->
  <line x1="40" y1="122" x2="460" y2="122" stroke="#e5e7eb" stroke-width="1"/>
  <!-- Description -->
  <text x="40" y="142" font-family="system-ui" font-size="11" font-weight="600" fill="#374151">Description</text>
  <rect x="40" y="152" width="400" height="8" rx="3" fill="#d1d5db"/>
  <rect x="40" y="166" width="360" height="8" rx="3" fill="#d1d5db"/>
  <rect x="40" y="180" width="300" height="8" rx="3" fill="#d1d5db"/>
  <rect x="40" y="194" width="380" height="8" rx="3" fill="#d1d5db"/>
  <!-- Divider -->
  <line x1="40" y1="214" x2="460" y2="214" stroke="#e5e7eb" stroke-width="1"/>
  <!-- Assignees -->
  <text x="40" y="234" font-family="system-ui" font-size="11" font-weight="600" fill="#374151">Assignees</text>
  <circle cx="52" cy="256" r="14" fill="#c4b5fd"/>
  <circle cx="80" cy="256" r="14" fill="#a5f3fc"/>
  <circle cx="108" cy="256" r="14" fill="#fecaca"/>
  <rect x="132" y="248" width="80" height="8" rx="3" fill="#6b7280"/>
  <rect x="132" y="262" width="60" height="6" rx="3" fill="#d1d5db"/>
  <!-- Due date -->
  <text x="280" y="234" font-family="system-ui" font-size="11" font-weight="600" fill="#374151">Due Date</text>
  <rect x="280" y="244" width="120" height="28" rx="6" fill="#f3f4f6" stroke="#e5e7eb" stroke-width="1"/>
  <text x="296" y="263" font-family="system-ui" font-size="11" fill="#6b7280">Mar 28, 2026</text>
  <!-- Divider -->
  <line x1="40" y1="286" x2="460" y2="286" stroke="#e5e7eb" stroke-width="1"/>
  <!-- Labels/Tags -->
  <text x="40" y="306" font-family="system-ui" font-size="11" font-weight="600" fill="#374151">Labels</text>
  <rect x="40" y="314" width="70" height="24" rx="12" fill="#ede9fe"/>
  <text x="56" y="330" font-family="system-ui" font-size="10" fill="#7c3aed">Frontend</text>
  <rect x="118" y="314" width="58" height="24" rx="12" fill="#dbeafe"/>
  <text x="130" y="330" font-family="system-ui" font-size="10" fill="#2563eb">Bug Fix</text>
  <rect x="184" y="314" width="62" height="24" rx="12" fill="#dcfce7"/>
  <text x="196" y="330" font-family="system-ui" font-size="10" fill="#16a34a">UI/UX</text>
  <rect x="254" y="314" width="60" height="24" rx="12" fill="#fef3c7"/>
  <text x="264" y="330" font-family="system-ui" font-size="10" fill="#d97706">Urgent</text>
  <!-- Subtasks -->
  <text x="40" y="362" font-family="system-ui" font-size="11" font-weight="600" fill="#374151">Subtasks (2/4)</text>
  <rect x="40" y="370" width="400" height="6" rx="3" fill="#e5e7eb"/>
  <rect x="40" y="370" width="200" height="6" rx="3" fill="#6366f1"/>
  <rect x="40" y="386" width="10" height="10" rx="2" fill="#6366f1"/>
  <text x="42" y="395" font-family="system-ui" font-size="10" fill="#ffffff">&#x2713;</text>
  <rect x="58" y="388" width="160" height="6" rx="3" fill="#9ca3af" text-decoration="line-through"/>
  <rect x="40" y="404" width="10" height="10" rx="2" fill="#6366f1"/>
  <text x="42" y="413" font-family="system-ui" font-size="10" fill="#ffffff">&#x2713;</text>
  <rect x="58" y="406" width="120" height="6" rx="3" fill="#9ca3af"/>
  <rect x="40" y="422" width="10" height="10" rx="2" fill="#ffffff" stroke="#d1d5db" stroke-width="1"/>
  <rect x="58" y="424" width="140" height="6" rx="3" fill="#374151"/>

  <!-- Right Panel: Activity Feed -->
  <rect x="500" y="50" width="280" height="386" rx="10" fill="#ffffff" filter="url(#shadow4)"/>
  <text x="520" y="74" font-family="system-ui" font-size="12" font-weight="700" fill="#1f2937">Activity</text>
  <rect x="700" y="62" width="60" height="20" rx="4" fill="#f3f4f6"/>
  <rect x="710" y="68" width="40" height="8" rx="3" fill="#9ca3af"/>
  <!-- Timeline -->
  <line x1="536" y1="92" x2="536" y2="420" stroke="#e5e7eb" stroke-width="2"/>
  <!-- Entry 1 -->
  <circle cx="536" cy="104" r="8" fill="#6366f1"/>
  <rect x="556" y="96" width="100" height="8" rx="3" fill="#374151"/>
  <rect x="556" y="110" width="190" height="6" rx="3" fill="#d1d5db"/>
  <rect x="556" y="122" width="60" height="6" rx="3" fill="#9ca3af"/>
  <!-- Entry 2 -->
  <circle cx="536" cy="152" r="8" fill="#f59e0b"/>
  <rect x="556" y="144" width="120" height="8" rx="3" fill="#374151"/>
  <rect x="556" y="158" width="170" height="6" rx="3" fill="#d1d5db"/>
  <rect x="556" y="170" width="60" height="6" rx="3" fill="#9ca3af"/>
  <!-- Entry 3 -->
  <circle cx="536" cy="200" r="8" fill="#22c55e"/>
  <rect x="556" y="192" width="140" height="8" rx="3" fill="#374151"/>
  <rect x="556" y="206" width="180" height="6" rx="3" fill="#d1d5db"/>
  <rect x="556" y="218" width="150" height="6" rx="3" fill="#d1d5db"/>
  <rect x="556" y="230" width="60" height="6" rx="3" fill="#9ca3af"/>
  <!-- Entry 4 -->
  <circle cx="536" cy="260" r="8" fill="#3b82f6"/>
  <rect x="556" y="252" width="110" height="8" rx="3" fill="#374151"/>
  <rect x="556" y="266" width="160" height="6" rx="3" fill="#d1d5db"/>
  <rect x="556" y="278" width="60" height="6" rx="3" fill="#9ca3af"/>
  <!-- Entry 5 -->
  <circle cx="536" cy="308" r="8" fill="#ec4899"/>
  <rect x="556" y="300" width="130" height="8" rx="3" fill="#374151"/>
  <rect x="556" y="314" width="190" height="6" rx="3" fill="#d1d5db"/>
  <rect x="556" y="326" width="60" height="6" rx="3" fill="#9ca3af"/>
  <!-- Entry 6 -->
  <circle cx="536" cy="356" r="8" fill="#8b5cf6"/>
  <rect x="556" y="348" width="100" height="8" rx="3" fill="#374151"/>
  <rect x="556" y="362" width="170" height="6" rx="3" fill="#d1d5db"/>
  <rect x="556" y="374" width="60" height="6" rx="3" fill="#9ca3af"/>
  <!-- Comment box -->
  <rect x="516" y="396" width="248" height="30" rx="6" fill="#f3f4f6" stroke="#e5e7eb" stroke-width="1"/>
  <rect x="530" y="407" width="80" height="8" rx="3" fill="#d1d5db"/>
</svg>