<svg xmlns="http://www.w3.org/2000/svg" width="800" height="450">
  <defs>
    <filter id="shadow1" x="-2%" y="-2%" width="104%" height="104%">
      <feDropShadow dx="0" dy="1" stdDeviation="2" flood-opacity="0.08"/>
    </filter>
  </defs>
  <!-- Browser chrome -->
  <rect width="800" height="450" rx="10" fill="#f8f9fa"/>
  <rect width="800" height="36" rx="10" fill="#e5e7eb"/>
  <rect x="0" y="20" width="800" height="16" fill="#e5e7eb"/>
  <circle cx="20" cy="18" r="6" fill="#ff5f57"/>
  <circle cx="40" cy="18" r="6" fill="#febc2e"/>
  <circle cx="60" cy="18" r="6" fill="#28c840"/>
  <rect x="120" y="10" width="560" height="16" rx="8" fill="#ffffff"/>
  <rect x="135" y="15" width="120" height="6" rx="3" fill="#d1d5db"/>
  <!-- Sidebar -->
  <rect x="0" y="36" width="160" height="414" fill="#1e1b4b"/>
  <!-- Sidebar logo -->
  <rect x="20" y="52" width="24" height="24" rx="6" fill="#6366f1"/>
  <rect x="52" y="56" width="80" height="10" rx="3" fill="#a5b4fc"/>
  <!-- Sidebar nav items -->
  <rect x="16" y="96" width="128" height="32" rx="6" fill="#312e81"/>
  <rect x="32" y="106" width="12" height="12" rx="2" fill="#818cf8"/>
  <rect x="52" y="108" width="70" height="8" rx="3" fill="#c7d2fe"/>
  <rect x="32" y="144" width="12" height="12" rx="2" fill="#6366f1"/>
  <rect x="52" y="146" width="60" height="8" rx="3" fill="#a5b4fc"/>
  <rect x="32" y="176" width="12" height="12" rx="2" fill="#6366f1"/>
  <rect x="52" y="178" width="55" height="8" rx="3" fill="#a5b4fc"/>
  <rect x="32" y="208" width="12" height="12" rx="2" fill="#6366f1"/>
  <rect x="52" y="210" width="65" height="8" rx="3" fill="#a5b4fc"/>
  <rect x="32" y="240" width="12" height="12" rx="2" fill="#6366f1"/>
  <rect x="52" y="242" width="50" height="8" rx="3" fill="#a5b4fc"/>
  <!-- Main content area -->
  <rect x="160" y="36" width="640" height="414" fill="#ffffff"/>
  <!-- Top bar -->
  <rect x="176" y="48" width="200" height="14" rx="4" fill="#1f2937"/>
  <rect x="680" y="46" width="90" height="28" rx="14" fill="#6366f1"/>
  <rect x="698" y="56" width="54" height="8" rx="3" fill="#ffffff"/>
  <!-- Search bar -->
  <rect x="176" y="76" width="280" height="30" rx="6" fill="#f3f4f6" stroke="#e5e7eb" stroke-width="1"/>
  <rect x="192" y="87" width="80" height="8" rx="3" fill="#d1d5db"/>
  <!-- Product grid - Row 1 -->
  <!-- Card 1 -->
  <rect x="176" y="120" width="192" height="200" rx="8" fill="#ffffff" stroke="#e5e7eb" stroke-width="1" filter="url(#shadow1)"/>
  <rect x="184" y="128" width="176" height="100" rx="6" fill="#ede9fe"/>
  <rect x="210" y="155" width="124" height="46" rx="4" fill="#c4b5fd"/>
  <rect x="184" y="238" width="120" height="8" rx="3" fill="#374151"/>
  <rect x="184" y="254" width="80" height="8" rx="3" fill="#9ca3af"/>
  <!-- Stars -->
  <circle cx="190" cy="274" r="4" fill="#fbbf24"/>
  <circle cx="202" cy="274" r="4" fill="#fbbf24"/>
  <circle cx="214" cy="274" r="4" fill="#fbbf24"/>
  <circle cx="226" cy="274" r="4" fill="#fbbf24"/>
  <circle cx="238" cy="274" r="4" fill="#e5e7eb"/>
  <text x="184" y="298" font-family="system-ui" font-size="13" font-weight="700" fill="#6366f1">$49.99</text>
  <rect x="280" y="286" width="72" height="26" rx="6" fill="#6366f1"/>
  <text x="294" y="303" font-family="system-ui" font-size="9" fill="#ffffff">Add to Cart</text>
  <!-- Card 2 -->
  <rect x="384" y="120" width="192" height="200" rx="8" fill="#ffffff" stroke="#e5e7eb" stroke-width="1" filter="url(#shadow1)"/>
  <rect x="392" y="128" width="176" height="100" rx="6" fill="#dbeafe"/>
  <rect x="418" y="155" width="124" height="46" rx="4" fill="#93c5fd"/>
  <rect x="392" y="238" width="110" height="8" rx="3" fill="#374151"/>
  <rect x="392" y="254" width="70" height="8" rx="3" fill="#9ca3af"/>
  <circle cx="398" cy="274" r="4" fill="#fbbf24"/>
  <circle cx="410" cy="274" r="4" fill="#fbbf24"/>
  <circle cx="422" cy="274" r="4" fill="#fbbf24"/>
  <circle cx="434" cy="274" r="4" fill="#fbbf24"/>
  <circle cx="446" cy="274" r="4" fill="#fbbf24"/>
  <text x="392" y="298" font-family="system-ui" font-size="13" font-weight="700" fill="#6366f1">$79.99</text>
  <rect x="488" y="286" width="72" height="26" rx="6" fill="#6366f1"/>
  <text x="502" y="303" font-family="system-ui" font-size="9" fill="#ffffff">Add to Cart</text>
  <!-- Card 3 -->
  <rect x="592" y="120" width="192" height="200" rx="8" fill="#ffffff" stroke="#e5e7eb" stroke-width="1" filter="url(#shadow1)"/>
  <rect x="600" y="128" width="176" height="100" rx="6" fill="#fce7f3"/>
  <rect x="626" y="155" width="124" height="46" rx="4" fill="#f9a8d4"/>
  <rect x="600" y="238" width="100" height="8" rx="3" fill="#374151"/>
  <rect x="600" y="254" width="90" height="8" rx="3" fill="#9ca3af"/>
  <circle cx="606" cy="274" r="4" fill="#fbbf24"/>
  <circle cx="618" cy="274" r="4" fill="#fbbf24"/>
  <circle cx="630" cy="274" r="4" fill="#fbbf24"/>
  <circle cx="642" cy="274" r="4" fill="#e5e7eb"/>
  <circle cx="654" cy="274" r="4" fill="#e5e7eb"/>
  <text x="600" y="298" font-family="system-ui" font-size="13" font-weight="700" fill="#6366f1">$34.99</text>
  <rect x="696" y="286" width="72" height="26" rx="6" fill="#6366f1"/>
  <text x="710" y="303" font-family="system-ui" font-size="9" fill="#ffffff">Add to Cart</text>
  <!-- Row 2 cards (partial) -->
  <rect x="176" y="336" width="192" height="100" rx="8" fill="#ffffff" stroke="#e5e7eb" stroke-width="1" filter="url(#shadow1)"/>
  <rect x="184" y="344" width="176" height="60" rx="6" fill="#ecfdf5"/>
  <rect x="184" y="414" width="100" height="8" rx="3" fill="#374151"/>
  <rect x="384" y="336" width="192" height="100" rx="8" fill="#ffffff" stroke="#e5e7eb" stroke-width="1" filter="url(#shadow1)"/>
  <rect x="392" y="344" width="176" height="60" rx="6" fill="#fef3c7"/>
  <rect x="392" y="414" width="110" height="8" rx="3" fill="#374151"/>
  <rect x="592" y="336" width="192" height="100" rx="8" fill="#ffffff" stroke="#e5e7eb" stroke-width="1" filter="url(#shadow1)"/>
  <rect x="600" y="344" width="176" height="60" rx="6" fill="#ffe4e6"/>
  <rect x="600" y="414" width="90" height="8" rx="3" fill="#374151"/>
</svg>