<svg xmlns="http://www.w3.org/2000/svg" width="800" height="450">
  <defs>
    <filter id="shadow3" x="-2%" y="-2%" width="104%" height="104%">
      <feDropShadow dx="0" dy="1" stdDeviation="2" flood-opacity="0.08"/>
    </filter>
  </defs>
  <!-- Browser chrome -->
  <rect width="800" height="450" rx="10" fill="#f9fafb"/>
  <rect width="800" height="36" rx="10" fill="#e5e7eb"/>
  <rect x="0" y="20" width="800" height="16" fill="#e5e7eb"/>
  <circle cx="20" cy="18" r="6" fill="#ff5f57"/>
  <circle cx="40" cy="18" r="6" fill="#febc2e"/>
  <circle cx="60" cy="18" r="6" fill="#28c840"/>
  <rect x="120" y="10" width="560" height="16" rx="8" fill="#ffffff"/>
  <rect x="135" y="15" width="100" height="6" rx="3" fill="#d1d5db"/>
  <!-- Header bar -->
  <rect x="0" y="36" width="800" height="40" fill="#ffffff"/>
  <rect x="20" y="46" width="120" height="14" rx="4" fill="#1f2937"/>
  <rect x="660" y="44" width="28" height="28" rx="14" fill="#6366f1"/>
  <text x="669" y="63" font-family="system-ui" font-size="16" fill="#ffffff">+</text>
  <rect x="700" y="44" width="80" height="28" rx="6" fill="#f3f4f6"/>
  <rect x="715" y="54" width="50" height="8" rx="3" fill="#9ca3af"/>
  <!-- Board area background -->
  <rect x="0" y="76" width="800" height="374" fill="#f3f4f6"/>
  <!-- Column 1: To Do -->
  <rect x="20" y="86" width="240" height="350" rx="8" fill="#ffffff" filter="url(#shadow3)"/>
  <rect x="20" y="86" width="240" height="40" rx="8" fill="#dbeafe"/>
  <rect x="20" y="116" width="240" height="10" fill="#ffffff"/>
  <circle cx="40" cy="106" r="6" fill="#3b82f6"/>
  <text x="54" y="110" font-family="system-ui" font-size="12" font-weight="700" fill="#1e40af">To Do</text>
  <rect x="220" y="98" width="28" height="16" rx="8" fill="#bfdbfe"/>
  <text x="229" y="110" font-family="system-ui" font-size="10" fill="#1e40af">3</text>
  <!-- To Do Cards -->
  <rect x="32" y="136" width="216" height="80" rx="6" fill="#ffffff" stroke="#e5e7eb" stroke-width="1" filter="url(#shadow3)"/>
  <rect x="44" y="146" width="140" height="8" rx="3" fill="#374151"/>
  <rect x="44" y="162" width="180" height="6" rx="3" fill="#d1d5db"/>
  <rect x="44" y="174" width="120" height="6" rx="3" fill="#d1d5db"/>
  <circle cx="56" cy="200" r="10" fill="#c4b5fd"/>
  <circle cx="52" cy="200" r="4" fill="#ef4444"/>
  <rect x="172" y="192" width="60" height="16" rx="4" fill="#fef3c7"/>
  <rect x="180" y="197" width="44" height="6" rx="3" fill="#d97706"/>

  <rect x="32" y="226" width="216" height="80" rx="6" fill="#ffffff" stroke="#e5e7eb" stroke-width="1" filter="url(#shadow3)"/>
  <rect x="44" y="236" width="120" height="8" rx="3" fill="#374151"/>
  <rect x="44" y="252" width="160" height="6" rx="3" fill="#d1d5db"/>
  <rect x="44" y="264" width="100" height="6" rx="3" fill="#d1d5db"/>
  <circle cx="56" cy="290" r="10" fill="#a5f3fc"/>
  <circle cx="52" cy="290" r="4" fill="#f59e0b"/>
  <rect x="172" y="282" width="60" height="16" rx="4" fill="#ede9fe"/>
  <rect x="180" y="287" width="44" height="6" rx="3" fill="#7c3aed"/>

  <rect x="32" y="316" width="216" height="70" rx="6" fill="#ffffff" stroke="#e5e7eb" stroke-width="1" filter="url(#shadow3)"/>
  <rect x="44" y="326" width="150" height="8" rx="3" fill="#374151"/>
  <rect x="44" y="342" width="170" height="6" rx="3" fill="#d1d5db"/>
  <circle cx="56" cy="370" r="10" fill="#fbcfe8"/>
  <circle cx="52" cy="370" r="4" fill="#22c55e"/>

  <!-- Column 2: In Progress -->
  <rect x="280" y="86" width="240" height="350" rx="8" fill="#ffffff" filter="url(#shadow3)"/>
  <rect x="280" y="86" width="240" height="40" rx="8" fill="#fef3c7"/>
  <rect x="280" y="116" width="240" height="10" fill="#ffffff"/>
  <circle cx="300" cy="106" r="6" fill="#f59e0b"/>
  <text x="314" y="110" font-family="system-ui" font-size="12" font-weight="700" fill="#92400e">In Progress</text>
  <rect x="480" y="98" width="28" height="16" rx="8" fill="#fde68a"/>
  <text x="489" y="110" font-family="system-ui" font-size="10" fill="#92400e">2</text>
  <!-- In Progress Cards -->
  <rect x="292" y="136" width="216" height="80" rx="6" fill="#ffffff" stroke="#e5e7eb" stroke-width="1" filter="url(#shadow3)"/>
  <rect x="304" y="146" width="130" height="8" rx="3" fill="#374151"/>
  <rect x="304" y="162" width="180" height="6" rx="3" fill="#d1d5db"/>
  <rect x="304" y="174" width="140" height="6" rx="3" fill="#d1d5db"/>
  <circle cx="316" cy="200" r="10" fill="#bbf7d0"/>
  <circle cx="312" cy="200" r="4" fill="#ef4444"/>
  <rect x="360" y="190" width="50" height="6" rx="3" fill="#9ca3af"/>
  <!-- Progress bar -->
  <rect x="304" y="186" width="180" height="4" rx="2" fill="#e5e7eb"/>
  <rect x="304" y="186" width="110" height="4" rx="2" fill="#f59e0b"/>

  <rect x="292" y="226" width="216" height="80" rx="6" fill="#ffffff" stroke="#e5e7eb" stroke-width="1" filter="url(#shadow3)"/>
  <rect x="304" y="236" width="160" height="8" rx="3" fill="#374151"/>
  <rect x="304" y="252" width="150" height="6" rx="3" fill="#d1d5db"/>
  <rect x="304" y="264" width="110" height="6" rx="3" fill="#d1d5db"/>
  <circle cx="316" cy="290" r="10" fill="#fecaca"/>
  <circle cx="312" cy="290" r="4" fill="#f59e0b"/>
  <rect x="304" y="276" width="180" height="4" rx="2" fill="#e5e7eb"/>
  <rect x="304" y="276" width="60" height="4" rx="2" fill="#f59e0b"/>

  <!-- Column 3: Done -->
  <rect x="540" y="86" width="240" height="350" rx="8" fill="#ffffff" filter="url(#shadow3)"/>
  <rect x="540" y="86" width="240" height="40" rx="8" fill="#dcfce7"/>
  <rect x="540" y="116" width="240" height="10" fill="#ffffff"/>
  <circle cx="560" cy="106" r="6" fill="#22c55e"/>
  <text x="574" y="110" font-family="system-ui" font-size="12" font-weight="700" fill="#166534">Done</text>
  <rect x="740" y="98" width="28" height="16" rx="8" fill="#bbf7d0"/>
  <text x="749" y="110" font-family="system-ui" font-size="10" fill="#166534">3</text>
  <!-- Done Cards -->
  <rect x="552" y="136" width="216" height="72" rx="6" fill="#ffffff" stroke="#e5e7eb" stroke-width="1" filter="url(#shadow3)"/>
  <rect x="564" y="146" width="120" height="8" rx="3" fill="#9ca3af"/>
  <rect x="564" y="162" width="160" height="6" rx="3" fill="#e5e7eb"/>
  <circle cx="576" cy="192" r="10" fill="#dbeafe"/>
  <text x="740" y="148" font-family="system-ui" font-size="14" fill="#22c55e">&#x2713;</text>

  <rect x="552" y="218" width="216" height="72" rx="6" fill="#ffffff" stroke="#e5e7eb" stroke-width="1" filter="url(#shadow3)"/>
  <rect x="564" y="228" width="140" height="8" rx="3" fill="#9ca3af"/>
  <rect x="564" y="244" width="170" height="6" rx="3" fill="#e5e7eb"/>
  <circle cx="576" cy="274" r="10" fill="#fecaca"/>
  <text x="740" y="230" font-family="system-ui" font-size="14" fill="#22c55e">&#x2713;</text>

  <rect x="552" y="300" width="216" height="72" rx="6" fill="#ffffff" stroke="#e5e7eb" stroke-width="1" filter="url(#shadow3)"/>
  <rect x="564" y="310" width="110" height="8" rx="3" fill="#9ca3af"/>
  <rect x="564" y="326" width="150" height="6" rx="3" fill="#e5e7eb"/>
  <circle cx="576" cy="356" r="10" fill="#c4b5fd"/>
  <text x="740" y="312" font-family="system-ui" font-size="14" fill="#22c55e">&#x2713;</text>
</svg>